<svg width="23.000000" height="23.000000" viewBox="0 0 23 23" fill="none" xmlns="http://www.w3.org/2000/svg" xmlns:xlink="http://www.w3.org/1999/xlink">
	<desc>
			Created with Pixso.
	</desc>
	<defs/>
	<path id="Vector" d="M7.09192 22.1183L9.77527 19.3583C8.81693 19.1667 7.93527 18.7833 7.13025 18.2466L7.09192 22.1183Z" fill="#FFE62E" fill-opacity="1.000000" fill-rule="nonzero"/>
	<path id="Vector" d="M15.9086 0.881653L13.2252 3.64166C14.1836 3.83331 15.0652 4.21664 15.8702 4.75333L15.9086 0.881653Z" fill="#FFE62E" fill-opacity="1.000000" fill-rule="nonzero"/>
	<path id="Vector" d="M0.881958 15.9083L4.75354 15.87C4.21689 15.065 3.83356 14.1833 3.64191 13.225L0.881958 15.9083Z" fill="#FFE62E" fill-opacity="1.000000" fill-rule="nonzero"/>
	<path id="Vector" d="M22.1188 7.09161L18.2471 7.12994C18.7454 7.93494 19.1288 8.81662 19.3587 9.77493L22.1188 7.09161Z" fill="#FFE62E" fill-opacity="1.000000" fill-rule="nonzero"/>
	<path id="Vector" d="M0.881958 7.09161L3.64191 9.77493C3.83356 8.81662 4.21689 7.93494 4.75354 7.12994L0.881958 7.09161Z" fill="#FFE62E" fill-opacity="1.000000" fill-rule="nonzero"/>
	<path id="Vector" d="M22.1188 15.9083L19.3587 13.225C19.1671 14.1833 18.7838 15.065 18.2471 15.87L22.1188 15.9083Z" fill="#FFE62E" fill-opacity="1.000000" fill-rule="nonzero"/>
	<path id="Vector" d="M7.0918 0.881653L7.13013 4.75333C7.93515 4.25497 8.8168 3.87164 9.77515 3.64166L7.0918 0.881653Z" fill="#FFE62E" fill-opacity="1.000000" fill-rule="nonzero"/>
	<path id="Vector" d="M15.9086 22.1183L15.8702 18.2466C15.0652 18.7833 14.1836 19.1667 13.2252 19.3583L15.9086 22.1183Z" fill="#FFE62E" fill-opacity="1.000000" fill-rule="nonzero"/>
	<path id="Vector" d="M4.90677 16.1L3.37341 19.665L6.93848 18.1317C6.13345 17.5566 5.44345 16.8666 4.90677 16.1Z" fill="#FFCE31" fill-opacity="1.000000" fill-rule="nonzero"/>
	<path id="Vector" d="M18.0933 6.89999L19.6266 3.33499L16.1 4.86832C16.8666 5.44333 17.5566 6.13333 18.0933 6.89999Z" fill="#FFCE31" fill-opacity="1.000000" fill-rule="nonzero"/>
	<path id="Vector" d="M3.60339 10.0817L0 11.5L3.60339 12.9184C3.4884 12.4584 3.45007 11.9984 3.45007 11.5C3.45007 11.0017 3.4884 10.5417 3.60339 10.0817Z" fill="#FFCE31" fill-opacity="1.000000" fill-rule="nonzero"/>
	<path id="Vector" d="M19.3966 12.9184L23 11.5L19.3966 10.0817C19.4733 10.5417 19.55 11.04 19.55 11.5C19.55 11.9984 19.5116 12.4584 19.3966 12.9184Z" fill="#FFCE31" fill-opacity="1.000000" fill-rule="nonzero"/>
	<path id="Vector" d="M6.8999 4.90665L3.33496 3.37332L4.86826 6.93832C5.44327 6.13333 6.13324 5.44333 6.8999 4.90665Z" fill="#FFCE31" fill-opacity="1.000000" fill-rule="nonzero"/>
	<path id="Vector" d="M16.1 18.0933L19.665 19.6266L18.1317 16.0616C17.5567 16.8666 16.8667 17.5566 16.1 18.0933Z" fill="#FFCE31" fill-opacity="1.000000" fill-rule="nonzero"/>
	<path id="Vector" d="M12.9185 3.60333L11.5001 0L10.0818 3.60333C10.5418 3.52667 11.0401 3.45001 11.5001 3.45001C11.9601 3.45001 12.4585 3.48834 12.9185 3.60333Z" fill="#FFCE31" fill-opacity="1.000000" fill-rule="nonzero"/>
	<path id="Vector" d="M10.0818 19.3967L11.5001 23L12.9185 19.3967C12.4585 19.5117 11.9984 19.55 11.5001 19.55C11.0018 19.55 10.5418 19.5117 10.0818 19.3967Z" fill="#FFCE31" fill-opacity="1.000000" fill-rule="nonzero"/>
	<path id="Vector" d="M18.7833 11.5C18.7833 15.5225 15.5225 18.7833 11.5 18.7833C7.47754 18.7833 4.21667 15.5225 4.21667 11.5C4.21667 7.47754 7.47754 4.21667 11.5 4.21667C15.5225 4.21667 18.7833 7.47754 18.7833 11.5Z" fill="#FFCE31" fill-opacity="1.000000" fill-rule="evenodd"/>
</svg>
